<svg width="91" height="91" viewBox="0 0 91 91" fill="none" xmlns="http://www.w3.org/2000/svg">
<path d="M0.75 90.7685L0.75 86.4312L5.08735 86.4312L5.08735 90.7685L0.75 90.7685Z" fill="#F9F2EA"/>
<path d="M5.08735 86.4312L5.08735 82.0939L9.4247 82.0939L9.4247 86.4312L5.08735 86.4312Z" fill="#F9F2EA"/>
<path d="M5.08735 90.7685L5.08735 86.4312L9.4247 86.4312L9.4247 90.7686L5.08735 90.7685Z" fill="#F9F2EA"/>
<path d="M9.4247 90.7686L9.4247 86.4312L13.762 86.4312L13.762 90.7686L9.4247 90.7686Z" fill="#F9F2EA"/>
<path d="M0.75 86.4312L0.75 82.0939L5.08735 82.0939L5.08735 86.4312L0.75 86.4312Z" fill="#F9F2EA"/>
<path d="M0.75 82.0939L0.749999 77.7565L5.08735 77.7565L5.08735 82.0939L0.75 82.0939Z" fill="#F9F2EA"/>
<path d="M0.749996 0.768558L0.749996 5.1059L5.08735 5.1059L5.08735 0.768557L0.749996 0.768558Z" fill="#F9F2EA"/>
<path d="M5.08735 5.1059L5.08735 9.44326L9.4247 9.44326L9.4247 5.10591L5.08735 5.1059Z" fill="#F9F2EA"/>
<path d="M5.08735 0.768557L5.08735 5.1059L9.4247 5.10591L9.42469 0.768551L5.08735 0.768557Z" fill="#F9F2EA"/>
<path d="M9.42469 0.768551L9.4247 5.10591L13.762 5.1059L13.762 0.768551L9.42469 0.768551Z" fill="#F9F2EA"/>
<path d="M0.749996 5.1059L0.749996 9.44326L5.08735 9.44326L5.08735 5.1059L0.749996 5.1059Z" fill="#F9F2EA"/>
<path d="M0.749996 9.44326L0.749997 13.7806L5.08735 13.7806L5.08735 9.44326L0.749996 9.44326Z" fill="#F9F2EA"/>
<path d="M90.75 90.7685L86.4126 90.7686L86.4126 86.4312L90.75 86.4312L90.75 90.7685Z" fill="#F9F2EA"/>
<path d="M86.4126 86.4312L82.0753 86.4312L82.0753 82.0939L86.4126 82.0939L86.4126 86.4312Z" fill="#F9F2EA"/>
<path d="M90.75 86.4312L86.4126 86.4312L86.4126 82.0939L90.75 82.0939L90.75 86.4312Z" fill="#F9F2EA"/>
<path d="M90.75 82.0939L86.4126 82.0939L86.4126 77.7565L90.75 77.7565L90.75 82.0939Z" fill="#F9F2EA"/>
<path d="M86.4126 90.7686L82.0753 90.7685L82.0753 86.4312L86.4126 86.4312L86.4126 90.7686Z" fill="#F9F2EA"/>
<path d="M82.0753 90.7685L77.7379 90.7686L77.7379 86.4312L82.0753 86.4312L82.0753 90.7685Z" fill="#F9F2EA"/>
<path d="M90.75 0.768554L90.75 5.1059L86.4126 5.1059L86.4126 0.768554L90.75 0.768554Z" fill="#F9F2EA"/>
<path d="M86.4126 5.1059L86.4126 9.44325L82.0753 9.44325L82.0753 5.1059L86.4126 5.1059Z" fill="#F9F2EA"/>
<path d="M86.4126 0.768554L86.4126 5.1059L82.0753 5.1059L82.0753 0.768571L86.4126 0.768554Z" fill="#F9F2EA"/>
<path d="M82.0753 0.768571L82.0753 5.1059L77.7379 5.10592L77.7379 0.768571L82.0753 0.768571Z" fill="#F9F2EA"/>
<path d="M90.75 5.1059L90.75 9.44326L86.4126 9.44325L86.4126 5.1059L90.75 5.1059Z" fill="#F9F2EA"/>
<path d="M90.75 9.44326L90.75 13.7806L86.4126 13.7806L86.4126 9.44325L90.75 9.44326Z" fill="#F9F2EA"/>
</svg>
